<svg xmlns="http://www.w3.org/2000/svg" viewBox="0 0 16.71 13.48"><defs><style>.cls-1{fill:#fff;}</style></defs><g id="レイヤー_2" data-name="レイヤー 2"><g id="Back"><path d="M9.85,9.84a2,2,0,0,1-1,.25q-2.1,0-4.2,0a2.74,2.74,0,0,1-1-.31A7,7,0,0,1,1,6.35a12.16,12.16,0,0,1-.9-3.76A18.42,18.42,0,0,1,0,.49.46.46,0,0,1,.49,0H13c.41,0,.63.22.6.61s0,.56,0,.84,0,.18.17.13a2.6,2.6,0,0,1,1.56,0A1.89,1.89,0,0,1,16.61,3a2.27,2.27,0,0,1,.06.25,2.32,2.32,0,0,1,0,.79A4,4,0,0,1,16,5.68a3.8,3.8,0,0,1-2.35,1.55,9.9,9.9,0,0,0-1.49.47,1.24,1.24,0,0,0-.61.45.74.74,0,0,1-.12.13A8.92,8.92,0,0,1,9.85,9.84Z"/><path class="cls-1" d="M12.73,6.39l.74-.19a2.74,2.74,0,0,0,1.91-1.54,2.18,2.18,0,0,0,.23-1.48.59.59,0,0,0-.63-.5,2.23,2.23,0,0,0-1.33.46.37.37,0,0,0-.16.27A15.6,15.6,0,0,1,13,5.73Z"/><rect x="0.93" y="11.73" width="12.48" height="1.75" rx="0.36"/></g></g></svg>