<svg xmlns="http://www.w3.org/2000/svg" viewBox="0 0 8.63 17.79"><g id="レイヤー_2" data-name="レイヤー 2"><g id="Back"><path d="M4.39,17.79c-.94,0-1.88,0-2.81-.13-.34,0-.8,0-.84-.45s.43-.38.71-.46c1.83-.48,2.18-1,2.29-2.87a3.59,3.59,0,0,0-1.67-3.66A4.85,4.85,0,0,1,0,6.36,21.51,21.51,0,0,1,.58.76.81.81,0,0,1,1.5,0H4.37"/><path d="M4.23,17.79c.94,0,1.88,0,2.82-.13.34,0,.8,0,.84-.45s-.43-.38-.72-.46c-1.82-.48-2.17-1-2.28-2.87a3.59,3.59,0,0,1,1.67-3.66,4.85,4.85,0,0,0,2-3.86A22,22,0,0,0,8.05.76.82.82,0,0,0,7.13,0H4.25"/></g></g></svg>