<?xml version="1.0" encoding="UTF-8"?>
<svg width="491px" height="189px" viewBox="0 0 491 189" version="1.1" xmlns="http://www.w3.org/2000/svg" xmlns:xlink="http://www.w3.org/1999/xlink">
    <!-- Generator: Sketch 53 (72520) - https://sketchapp.com -->
    <title>Group 8</title>
    <desc>Created with Sketch.</desc>
    <defs>
        <polygon id="path-1" points="0 0.774093224 490.63572 0.774093224 490.63572 107.999908 0 107.999908"></polygon>
    </defs>
    <g id="Welcome" stroke="none" stroke-width="1" fill="none" fill-rule="evenodd">
        <g id="pc_concept" transform="translate(-395.000000, -247.000000)">
            <g id="header" transform="translate(0.000000, -4.000000)">
                <g id="Group-8" transform="translate(395.000000, 251.000000)">
                    <path d="M450.2559,76.4465 C450.4369,76.3765 450.6929,76.2525 450.8779,76.2265 L450.9489,76.2165 C450.9489,76.2165 451.5799,76.0905 451.3099,76.6615 C451.1619,77.0065 450.8039,77.4815 450.3509,77.8885 C448.1419,79.8765 445.1999,81.1985 442.3869,82.3325 C444.1809,79.7495 447.1339,77.6655 450.2559,76.4465 M179.3419,77.8765 C178.2799,77.4435 177.2569,77.0085 176.2669,76.5685 L175.3569,76.1655 C172.1099,74.7335 168.0679,72.9505 165.6909,70.6045 C165.0619,69.9835 165.0989,69.8275 165.0969,69.8265 C165.1199,69.8065 165.1619,69.7935 165.2319,69.7925 C165.5269,69.7895 166.3249,70.0005 168.2829,70.8125 L168.4779,70.8925 C169.9279,71.4895 171.3829,72.2325 172.9269,73.1635 C174.9999,74.4125 177.0829,75.9405 179.3419,77.8765 M198.7369,55.7905 C197.2609,53.9925 195.5889,51.8495 194.3889,49.5855 C194.3609,49.5315 194.3019,49.4425 194.2309,49.3325 C194.1049,49.1405 193.7219,48.5535 193.7619,48.4215 C193.8149,48.3345 193.8909,48.2825 193.9999,48.2585 C194.0419,48.2495 194.0889,48.2445 194.1379,48.2435 C194.5689,48.2385 195.2809,48.5545 196.2559,49.1855 L196.3439,49.2415 C197.6749,50.0855 198.7279,51.6755 199.5729,52.9545 L199.8029,53.3025 C201.5459,55.9195 202.8229,58.7735 203.9259,61.6665 C202.2089,59.8695 200.4779,57.9095 198.7369,55.7905 M249.5059,34.5415 L249.4509,34.0665 C249.2899,32.6455 249.1229,31.1765 249.0719,29.7315 L249.0569,29.3445 C248.9839,27.5715 248.8479,24.2695 250.1369,23.1815 C250.3799,22.9755 250.5979,22.8735 250.7959,22.8705 C250.8639,22.8695 250.9299,22.8805 250.9929,22.9025 C251.9029,23.2225 252.2969,25.7565 252.4659,26.8385 L252.5169,27.1615 C252.8099,28.9255 252.9729,30.8215 253.0009,32.7985 C253.0549,36.4725 252.7359,40.4425 251.9989,45.2915 C251.8999,45.9405 251.7829,46.5915 251.6509,47.2415 C250.7419,43.4225 250.0389,39.2605 249.5059,34.5415 M311.1749,19.7685 C313.2669,13.6115 315.7689,8.5665 318.6099,4.7745 C318.9499,4.3205 320.0269,3.0005 321.0149,2.9875 C321.1599,2.9865 321.3039,3.0125 321.4439,3.0745 C322.2409,3.4305 322.1719,4.9135 322.1299,5.8005 C322.1239,5.9205 322.1189,6.0305 322.1159,6.1305 C322.0519,8.3545 321.4949,10.6395 320.9569,12.8495 L320.7969,13.5055 C319.8499,17.4305 318.4189,21.2915 316.5459,24.9815 C314.2169,29.5695 311.4889,34.1695 308.3209,38.8485 C308.2609,37.8925 308.2299,36.9345 308.2309,35.9745 C308.2329,30.9615 309.2239,25.5085 311.1749,19.7685 M380.5169,46.4055 C380.0999,47.2135 379.5359,48.0065 378.8429,48.7745 C373.3059,53.7365 367.2169,57.9375 360.7369,61.2575 C359.7089,61.7845 358.6589,62.2805 357.6029,62.7645 C360.6259,58.5045 364.7249,54.4465 369.8259,50.6765 C370.1649,50.4255 370.5149,50.1635 370.8739,49.8955 C373.5559,47.8885 376.5949,45.6135 379.6219,44.6015 C380.6669,44.2515 380.9849,44.3715 381.0799,44.4755 C381.3589,44.7785 380.8109,45.8375 380.5169,46.4055 M402.9829,72.5915 C404.0959,71.4345 413.0719,63.0925 416.6229,63.0475 C416.6989,63.0465 416.7739,63.0495 416.8449,63.0565 C417.2439,63.0945 417.5309,63.2595 417.7209,63.5595 C417.9069,63.8525 417.9379,64.1715 417.8169,64.5355 C417.1939,66.3935 412.6329,69.1415 404.9699,72.2705 L404.8159,72.3335 C403.9889,72.6725 403.1569,73.0005 402.3189,73.3175 C402.5259,73.0775 402.7469,72.8355 402.9829,72.5915 M458.9149,91.1515 C458.7849,91.1825 458.6919,91.1915 458.5589,91.2355 C453.7449,92.3705 448.7209,93.1935 444.1339,92.2215 C441.7399,91.7145 439.9889,90.4735 439.5649,88.9835 C439.4019,88.4095 439.4429,87.8175 439.6679,87.2225 C439.8689,86.8445 440.0839,86.4685 440.3129,86.0965 C440.5539,85.7865 440.8439,85.4775 441.1869,85.1725 C441.3799,85.0005 441.9099,84.6215 442.3359,84.3165 C442.3759,84.2885 442.4079,84.2645 442.4459,84.2385 C443.2889,84.0005 444.1259,83.7525 444.9529,83.4735 C447.3769,82.6585 449.6809,81.3795 451.6129,79.7755 C453.1569,78.4925 453.7479,77.1325 453.3699,75.7325 C453.1719,74.9925 452.5119,74.4195 451.6899,74.2725 C450.4869,74.0565 449.5169,74.5265 448.8719,74.8385 C445.3249,76.5565 442.3939,79.2045 440.2199,81.8745 C438.9559,82.3635 437.7039,82.8105 436.4649,83.2155 L436.3469,83.2445 L436.3499,83.2555 C426.7209,86.3845 417.8089,86.9925 409.8049,85.0585 C407.6529,84.5385 404.5239,83.6375 402.2029,81.8315 C400.8879,80.8075 400.1719,79.6465 400.0759,78.3805 C400.0319,77.8125 400.1119,77.2175 400.3149,76.5975 C401.4199,76.2175 402.5209,75.8185 403.6189,75.4005 C407.3419,73.9815 411.2769,72.3605 414.8339,70.1265 L414.8879,70.0925 C416.9549,68.7945 419.7869,67.0165 420.3629,64.6645 C420.7209,63.2065 420.0329,61.8655 418.5689,61.1665 C415.9029,59.8945 412.5069,61.9675 410.8739,62.9635 C407.2589,65.1705 403.7329,68.0675 400.6729,71.3425 C399.7779,72.3005 398.7869,73.4805 398.0979,74.8055 C393.9279,76.1715 389.6459,77.2705 385.3019,78.0885 C378.5099,79.3645 369.7519,80.6375 362.2559,79.1335 C360.0679,78.6945 356.1439,77.5135 354.4439,74.5375 C352.9709,71.9585 353.8599,69.0965 355.2799,66.4555 C357.6009,65.5015 359.8869,64.4775 362.0999,63.3445 C368.3629,60.1345 374.2759,56.1115 379.7049,51.3895 C379.8309,51.3275 379.9529,51.2525 380.0629,51.1465 C380.1609,51.0505 380.2869,50.9155 380.4239,50.7615 C380.5889,50.6145 380.7589,50.4745 380.9229,50.3265 C381.1259,50.1435 381.2419,49.9305 381.2879,49.7055 C382.6849,47.8655 384.4519,44.9085 383.7689,43.1235 C383.4499,42.2885 382.6409,41.8095 381.3659,41.6995 C378.4989,41.4515 375.0959,43.9115 372.6099,45.7065 C372.0679,46.0975 371.5579,46.4665 371.1099,46.7665 C366.9129,49.5715 363.4089,52.4305 360.3959,55.5075 C357.8439,58.1125 354.9529,61.3335 353.0579,64.7085 C349.9209,65.9655 346.7289,67.1015 343.5659,68.1975 C343.4969,68.2125 343.4299,68.2265 343.3579,68.2515 C335.2939,71.1495 326.2069,73.1975 319.9459,66.4105 C314.0359,60.0045 310.1269,51.7015 308.7659,42.9205 C311.5859,38.8195 314.2769,34.5045 316.8049,30.0235 C319.9039,24.5295 321.9039,19.8445 323.0999,15.2805 C323.2249,14.8015 323.3809,14.2595 323.5499,13.6725 C324.6519,9.8455 326.3169,4.0625 323.6489,1.1705 C322.7649,0.2115 321.7679,-0.1485 320.6809,0.0995 C314.7359,1.4555 307.8899,20.9385 307.2999,23.1065 C305.5819,29.4245 305.1799,35.8385 306.0479,42.1125 C303.4449,45.7495 300.5729,49.4445 297.4119,53.2225 C297.0589,53.6465 296.6989,54.0785 296.3339,54.5185 C289.5939,62.6375 281.2059,72.7415 268.8709,68.9705 C261.3189,66.6615 256.2419,61.3455 253.1329,52.3895 C253.7979,50.0135 254.3619,47.5505 254.7139,45.0735 C255.2759,41.1305 255.8259,36.4865 255.6579,31.9445 C255.6479,31.6685 255.6389,31.3775 255.6299,31.0745 C255.5329,27.8095 255.4009,23.3385 252.9859,21.0335 C252.0999,20.1875 251.1739,19.8815 250.2399,20.1285 C248.4709,20.5955 247.2699,22.8695 246.8949,24.2845 C245.8419,28.2465 246.4589,32.4885 247.0549,36.5915 C247.1239,37.0715 247.1939,37.5475 247.2599,38.0175 C247.8739,42.4285 248.6009,47.6395 250.2619,52.6655 C249.6689,54.6385 249.0179,56.5605 248.4019,58.3725 C246.8259,63.0225 244.5489,68.2755 239.6199,71.9845 C239.4909,72.0805 239.3909,72.1885 239.3169,72.3025 C236.9039,74.1345 233.8879,75.5255 230.0539,75.4215 C224.6699,75.2795 218.8609,73.1705 215.1949,71.2325 C212.7969,69.6945 210.3459,67.7855 207.8599,65.5195 C207.7799,65.3035 207.6999,65.0895 207.6199,64.8755 C207.1379,63.5785 206.6379,62.2385 206.1769,60.9175 C204.4949,56.0985 202.2699,52.1545 199.5639,49.1955 C197.3159,46.7355 195.2959,45.4025 193.7239,45.3405 C192.9919,45.3085 192.3539,45.5485 191.8189,46.0455 C190.1069,47.6385 192.1289,50.6295 193.2149,52.2365 C193.3209,52.3925 193.4179,52.5355 193.5019,52.6635 C196.8139,57.7065 201.1149,62.6345 205.7659,66.8085 C206.0669,67.6705 206.3739,68.5465 206.6869,69.4045 C206.7879,69.6815 206.8929,69.9615 206.9989,70.2425 C207.8599,72.5355 208.7509,74.9055 208.0619,77.2375 C206.5339,82.4035 200.6129,82.8475 196.2829,82.7295 L196.2799,82.7295 C193.0699,82.6235 190.2539,81.8255 187.8989,81.0315 C187.1599,80.7835 186.4389,80.5355 185.7339,80.2875 C182.8479,77.2755 179.1129,74.5825 176.2349,72.6255 C173.8059,70.9735 171.4809,69.7115 169.1299,68.7655 C168.9199,68.6815 168.6939,68.5865 168.4589,68.4865 C166.8999,67.8265 164.9629,67.0045 163.4159,67.5195 C162.4369,67.8455 161.8959,68.3255 161.8089,68.9445 C161.5959,70.4675 164.1539,72.3495 166.0959,73.6325 L166.1549,73.6715 C171.4119,77.1465 177.3849,79.5545 182.5349,81.4525 L183.1529,81.6805 C183.3609,81.7575 183.5689,81.8335 183.7769,81.9105 C184.5559,82.6535 185.3019,83.4225 185.9089,84.2385 C185.9559,84.3005 186.0119,84.3735 186.0759,84.4555 C186.5339,85.0505 187.4879,86.2855 187.1309,86.8665 C186.8849,87.2625 185.4889,87.2195 184.8189,87.1995 C184.6419,87.1955 184.4919,87.1905 184.3809,87.1915 C184.3489,87.1915 184.3249,87.1925 184.2969,87.1935 C180.4779,87.2415 175.8449,86.1935 170.5269,84.0755 C169.7659,83.7715 169.0359,84.1925 168.7939,84.7535 C168.6089,85.1805 168.7119,85.7275 169.3599,85.9845 C171.4369,86.8115 179.7049,89.2735 185.0059,89.2055 C186.8589,89.1815 188.3499,88.8485 189.0869,88.0295 C189.9089,87.1145 189.7259,85.6955 188.5429,83.8085 C188.4759,83.7015 188.4069,83.5935 188.3359,83.4875 C191.0339,84.3175 193.8159,84.9245 196.7319,84.9365 C199.7319,84.9485 204.2719,84.9675 206.8609,82.7995 C206.8809,82.7825 206.8939,82.7645 206.9129,82.7475 C207.4829,82.3515 208.0119,81.8865 208.4919,81.3415 C210.7059,78.8255 211.2209,75.7365 210.0659,71.8965 C209.8629,71.2225 209.6459,70.5485 209.4209,69.8745 C210.8349,70.9795 212.2639,72.0005 213.6939,72.9295 C213.7659,72.9925 213.8499,73.0505 213.9429,73.0995 C213.9559,73.1065 213.9709,73.1135 213.9849,73.1205 C213.9949,73.1275 214.0049,73.1345 214.0159,73.1415 C214.0899,73.1895 214.1659,73.2225 214.2429,73.2535 C218.5089,75.4685 224.8999,77.6885 230.6769,77.6145 C230.8959,77.6125 231.1129,77.6065 231.3299,77.5965 C234.7569,77.4465 237.8659,76.2765 240.8699,73.9775 C241.0879,73.9405 241.3039,73.8585 241.5039,73.7075 C245.4619,70.7295 248.2369,66.6225 250.5049,60.3905 C250.9399,59.1975 251.3839,57.9465 251.8169,56.6515 C253.5369,60.4125 255.9519,63.9065 259.4439,66.6755 C264.0229,70.3095 269.3709,72.2915 274.5019,72.2555 C274.5399,72.2555 274.5769,72.2555 274.6139,72.2545 C280.0159,72.1855 285.1199,69.7965 290.2149,64.9535 C295.9659,59.4865 301.5349,53.0225 306.7159,45.8325 C308.1679,52.4075 311.0359,58.7735 315.2639,64.6485 C317.6319,67.9395 320.6999,71.4895 325.5079,72.8685 C327.2579,73.3705 329.0519,73.5705 330.8689,73.5475 C333.3529,73.5155 335.8769,73.0585 338.3879,72.3925 C338.4589,72.4045 338.5269,72.4255 338.6019,72.4255 C338.7519,72.4235 338.9079,72.3945 339.0679,72.3395 C340.1889,71.9475 341.3109,71.5605 342.4349,71.1725 C345.4739,70.1245 348.5589,69.0555 351.6139,67.8995 C350.8289,70.2525 350.7079,72.6095 351.6849,74.8215 C354.8809,82.0625 365.4649,82.3585 373.1519,81.9515 C381.2139,81.5255 389.2899,80.0655 397.2399,77.6025 C397.1699,78.4845 397.2989,79.4005 397.7079,80.3355 C400.9699,87.7765 414.8399,88.5115 419.0139,88.5585 C419.4019,88.5635 419.7899,88.5635 420.1809,88.5585 C425.5639,88.4885 431.1099,87.5205 436.9809,85.6185 L436.9849,85.6365 L437.4339,85.5275 C436.6839,86.7285 436.4149,87.9655 436.6259,89.2495 C437.5029,94.5915 445.7569,95.0075 448.9109,94.9665 C449.0679,94.9645 449.2109,94.9615 449.3399,94.9575 C452.2519,94.8755 455.4019,94.4465 458.7049,93.6855 C458.8479,93.6525 458.9869,93.6075 459.1279,93.5645 C459.3199,93.5425 459.5379,93.4635 459.7219,93.4195" id="Fill-1" fill="#FFFFFF"></path>
                    <path d="M450.2559,76.4465 C450.4369,76.3765 450.6929,76.2525 450.8779,76.2265 L450.9489,76.2165 C450.9489,76.2165 451.5799,76.0905 451.3099,76.6615 C451.1619,77.0065 450.8039,77.4815 450.3509,77.8885 C448.1419,79.8765 445.1999,81.1985 442.3869,82.3325 C444.1809,79.7495 447.1339,77.6655 450.2559,76.4465 Z M179.3419,77.8765 C178.2799,77.4435 177.2569,77.0085 176.2669,76.5685 L175.3569,76.1655 C172.1099,74.7335 168.0679,72.9505 165.6909,70.6045 C165.0619,69.9835 165.0989,69.8275 165.0969,69.8265 C165.1199,69.8065 165.1619,69.7935 165.2319,69.7925 C165.5269,69.7895 166.3249,70.0005 168.2829,70.8125 L168.4779,70.8925 C169.9279,71.4895 171.3829,72.2325 172.9269,73.1635 C174.9999,74.4125 177.0829,75.9405 179.3419,77.8765 Z M198.7369,55.7905 C197.2609,53.9925 195.5889,51.8495 194.3889,49.5855 C194.3609,49.5315 194.3019,49.4425 194.2309,49.3325 C194.1049,49.1405 193.7219,48.5535 193.7619,48.4215 C193.8149,48.3345 193.8909,48.2825 193.9999,48.2585 C194.0419,48.2495 194.0889,48.2445 194.1379,48.2435 C194.5689,48.2385 195.2809,48.5545 196.2559,49.1855 L196.3439,49.2415 C197.6749,50.0855 198.7279,51.6755 199.5729,52.9545 L199.8029,53.3025 C201.5459,55.9195 202.8229,58.7735 203.9259,61.6665 C202.2089,59.8695 200.4779,57.9095 198.7369,55.7905 Z M249.5059,34.5415 L249.4509,34.0665 C249.2899,32.6455 249.1229,31.1765 249.0719,29.7315 L249.0569,29.3445 C248.9839,27.5715 248.8479,24.2695 250.1369,23.1815 C250.3799,22.9755 250.5979,22.8735 250.7959,22.8705 C250.8639,22.8695 250.9299,22.8805 250.9929,22.9025 C251.9029,23.2225 252.2969,25.7565 252.4659,26.8385 L252.5169,27.1615 C252.8099,28.9255 252.9729,30.8215 253.0009,32.7985 C253.0549,36.4725 252.7359,40.4425 251.9989,45.2915 C251.8999,45.9405 251.7829,46.5915 251.6509,47.2415 C250.7419,43.4225 250.0389,39.2605 249.5059,34.5415 Z M311.1749,19.7685 C313.2669,13.6115 315.7689,8.5665 318.6099,4.7745 C318.9499,4.3205 320.0269,3.0005 321.0149,2.9875 C321.1599,2.9865 321.3039,3.0125 321.4439,3.0745 C322.2409,3.4305 322.1719,4.9135 322.1299,5.8005 C322.1239,5.9205 322.1189,6.0305 322.1159,6.1305 C322.0519,8.3545 321.4949,10.6395 320.9569,12.8495 L320.7969,13.5055 C319.8499,17.4305 318.4189,21.2915 316.5459,24.9815 C314.2169,29.5695 311.4889,34.1695 308.3209,38.8485 C308.2609,37.8925 308.2299,36.9345 308.2309,35.9745 C308.2329,30.9615 309.2239,25.5085 311.1749,19.7685 Z M380.5169,46.4055 C380.0999,47.2135 379.5359,48.0065 378.8429,48.7745 C373.3059,53.7365 367.2169,57.9375 360.7369,61.2575 C359.7089,61.7845 358.6589,62.2805 357.6029,62.7645 C360.6259,58.5045 364.7249,54.4465 369.8259,50.6765 C370.1649,50.4255 370.5149,50.1635 370.8739,49.8955 C373.5559,47.8885 376.5949,45.6135 379.6219,44.6015 C380.6669,44.2515 380.9849,44.3715 381.0799,44.4755 C381.3589,44.7785 380.8109,45.8375 380.5169,46.4055 Z M402.9829,72.5915 C404.0959,71.4345 413.0719,63.0925 416.6229,63.0475 C416.6989,63.0465 416.7739,63.0495 416.8449,63.0565 C417.2439,63.0945 417.5309,63.2595 417.7209,63.5595 C417.9069,63.8525 417.9379,64.1715 417.8169,64.5355 C417.1939,66.3935 412.6329,69.1415 404.9699,72.2705 L404.8159,72.3335 C403.9889,72.6725 403.1569,73.0005 402.3189,73.3175 C402.5259,73.0775 402.7469,72.8355 402.9829,72.5915 Z M458.9149,91.1515 C458.7849,91.1825 458.6919,91.1915 458.5589,91.2355 C453.7449,92.3705 448.7209,93.1935 444.1339,92.2215 C441.7399,91.7145 439.9889,90.4735 439.5649,88.9835 C439.4019,88.4095 439.4429,87.8175 439.6679,87.2225 C439.8689,86.8445 440.0839,86.4685 440.3129,86.0965 C440.5539,85.7865 440.8439,85.4775 441.1869,85.1725 C441.3799,85.0005 441.9099,84.6215 442.3359,84.3165 C442.3759,84.2885 442.4079,84.2645 442.4459,84.2385 C443.2889,84.0005 444.1259,83.7525 444.9529,83.4735 C447.3769,82.6585 449.6809,81.3795 451.6129,79.7755 C453.1569,78.4925 453.7479,77.1325 453.3699,75.7325 C453.1719,74.9925 452.5119,74.4195 451.6899,74.2725 C450.4869,74.0565 449.5169,74.5265 448.8719,74.8385 C445.3249,76.5565 442.3939,79.2045 440.2199,81.8745 C438.9559,82.3635 437.7039,82.8105 436.4649,83.2155 L436.3469,83.2445 L436.3499,83.2555 C426.7209,86.3845 417.8089,86.9925 409.8049,85.0585 C407.6529,84.5385 404.5239,83.6375 402.2029,81.8315 C400.8879,80.8075 400.1719,79.6465 400.0759,78.3805 C400.0319,77.8125 400.1119,77.2175 400.3149,76.5975 C401.4199,76.2175 402.5209,75.8185 403.6189,75.4005 C407.3419,73.9815 411.2769,72.3605 414.8339,70.1265 L414.8879,70.0925 C416.9549,68.7945 419.7869,67.0165 420.3629,64.6645 C420.7209,63.2065 420.0329,61.8655 418.5689,61.1665 C415.9029,59.8945 412.5069,61.9675 410.8739,62.9635 C407.2589,65.1705 403.7329,68.0675 400.6729,71.3425 C399.7779,72.3005 398.7869,73.4805 398.0979,74.8055 C393.9279,76.1715 389.6459,77.2705 385.3019,78.0885 C378.5099,79.3645 369.7519,80.6375 362.2559,79.1335 C360.0679,78.6945 356.1439,77.5135 354.4439,74.5375 C352.9709,71.9585 353.8599,69.0965 355.2799,66.4555 C357.6009,65.5015 359.8869,64.4775 362.0999,63.3445 C368.3629,60.1345 374.2759,56.1115 379.7049,51.3895 C379.8309,51.3275 379.9529,51.2525 380.0629,51.1465 C380.1609,51.0505 380.2869,50.9155 380.4239,50.7615 C380.5889,50.6145 380.7589,50.4745 380.9229,50.3265 C381.1259,50.1435 381.2419,49.9305 381.2879,49.7055 C382.6849,47.8655 384.4519,44.9085 383.7689,43.1235 C383.4499,42.2885 382.6409,41.8095 381.3659,41.6995 C378.4989,41.4515 375.0959,43.9115 372.6099,45.7065 C372.0679,46.0975 371.5579,46.4665 371.1099,46.7665 C366.9129,49.5715 363.4089,52.4305 360.3959,55.5075 C357.8439,58.1125 354.9529,61.3335 353.0579,64.7085 C349.9209,65.9655 346.7289,67.1015 343.5659,68.1975 C343.4969,68.2125 343.4299,68.2265 343.3579,68.2515 C335.2939,71.1495 326.2069,73.1975 319.9459,66.4105 C314.0359,60.0045 310.1269,51.7015 308.7659,42.9205 C311.5859,38.8195 314.2769,34.5045 316.8049,30.0235 C319.9039,24.5295 321.9039,19.8445 323.0999,15.2805 C323.2249,14.8015 323.3809,14.2595 323.5499,13.6725 C324.6519,9.8455 326.3169,4.0625 323.6489,1.1705 C322.7649,0.2115 321.7679,-0.1485 320.6809,0.0995 C314.7359,1.4555 307.8899,20.9385 307.2999,23.1065 C305.5819,29.4245 305.1799,35.8385 306.0479,42.1125 C303.4449,45.7495 300.5729,49.4445 297.4119,53.2225 C297.0589,53.6465 296.6989,54.0785 296.3339,54.5185 C289.5939,62.6375 281.2059,72.7415 268.8709,68.9705 C261.3189,66.6615 256.2419,61.3455 253.1329,52.3895 C253.7979,50.0135 254.3619,47.5505 254.7139,45.0735 C255.2759,41.1305 255.8259,36.4865 255.6579,31.9445 C255.6479,31.6685 255.6389,31.3775 255.6299,31.0745 C255.5329,27.8095 255.4009,23.3385 252.9859,21.0335 C252.0999,20.1875 251.1739,19.8815 250.2399,20.1285 C248.4709,20.5955 247.2699,22.8695 246.8949,24.2845 C245.8419,28.2465 246.4589,32.4885 247.0549,36.5915 C247.1239,37.0715 247.1939,37.5475 247.2599,38.0175 C247.8739,42.4285 248.6009,47.6395 250.2619,52.6655 C249.6689,54.6385 249.0179,56.5605 248.4019,58.3725 C246.8259,63.0225 244.5489,68.2755 239.6199,71.9845 C239.4909,72.0805 239.3909,72.1885 239.3169,72.3025 C236.9039,74.1345 233.8879,75.5255 230.0539,75.4215 C224.6699,75.2795 218.8609,73.1705 215.1949,71.2325 C212.7969,69.6945 210.3459,67.7855 207.8599,65.5195 C207.7799,65.3035 207.6999,65.0895 207.6199,64.8755 C207.1379,63.5785 206.6379,62.2385 206.1769,60.9175 C204.4949,56.0985 202.2699,52.1545 199.5639,49.1955 C197.3159,46.7355 195.2959,45.4025 193.7239,45.3405 C192.9919,45.3085 192.3539,45.5485 191.8189,46.0455 C190.1069,47.6385 192.1289,50.6295 193.2149,52.2365 C193.3209,52.3925 193.4179,52.5355 193.5019,52.6635 C196.8139,57.7065 201.1149,62.6345 205.7659,66.8085 C206.0669,67.6705 206.3739,68.5465 206.6869,69.4045 C206.7879,69.6815 206.8929,69.9615 206.9989,70.2425 C207.8599,72.5355 208.7509,74.9055 208.0619,77.2375 C206.5339,82.4035 200.6129,82.8475 196.2829,82.7295 L196.2799,82.7295 C193.0699,82.6235 190.2539,81.8255 187.8989,81.0315 C187.1599,80.7835 186.4389,80.5355 185.7339,80.2875 C182.8479,77.2755 179.1129,74.5825 176.2349,72.6255 C173.8059,70.9735 171.4809,69.7115 169.1299,68.7655 C168.9199,68.6815 168.6939,68.5865 168.4589,68.4865 C166.8999,67.8265 164.9629,67.0045 163.4159,67.5195 C162.4369,67.8455 161.8959,68.3255 161.8089,68.9445 C161.5959,70.4675 164.1539,72.3495 166.0959,73.6325 L166.1549,73.6715 C171.4119,77.1465 177.3849,79.5545 182.5349,81.4525 L183.1529,81.6805 C183.3609,81.7575 183.5689,81.8335 183.7769,81.9105 C184.5559,82.6535 185.3019,83.4225 185.9089,84.2385 C185.9559,84.3005 186.0119,84.3735 186.0759,84.4555 C186.5339,85.0505 187.4879,86.2855 187.1309,86.8665 C186.8849,87.2625 185.4889,87.2195 184.8189,87.1995 C184.6419,87.1955 184.4919,87.1905 184.3809,87.1915 C184.3489,87.1915 184.3249,87.1925 184.2969,87.1935 C180.4779,87.2415 175.8449,86.1935 170.5269,84.0755 C169.7659,83.7715 169.0359,84.1925 168.7939,84.7535 C168.6089,85.1805 168.7119,85.7275 169.3599,85.9845 C171.4369,86.8115 179.7049,89.2735 185.0059,89.2055 C186.8589,89.1815 188.3499,88.8485 189.0869,88.0295 C189.9089,87.1145 189.7259,85.6955 188.5429,83.8085 C188.4759,83.7015 188.4069,83.5935 188.3359,83.4875 C191.0339,84.3175 193.8159,84.9245 196.7319,84.9365 C199.7319,84.9485 204.2719,84.9675 206.8609,82.7995 C206.8809,82.7825 206.8939,82.7645 206.9129,82.7475 C207.4829,82.3515 208.0119,81.8865 208.4919,81.3415 C210.7059,78.8255 211.2209,75.7365 210.0659,71.8965 C209.8629,71.2225 209.6459,70.5485 209.4209,69.8745 C210.8349,70.9795 212.2639,72.0005 213.6939,72.9295 C213.7659,72.9925 213.8499,73.0505 213.9429,73.0995 C213.9559,73.1065 213.9709,73.1135 213.9849,73.1205 C213.9949,73.1275 214.0049,73.1345 214.0159,73.1415 C214.0899,73.1895 214.1659,73.2225 214.2429,73.2535 C218.5089,75.4685 224.8999,77.6885 230.6769,77.6145 C230.8959,77.6125 231.1129,77.6065 231.3299,77.5965 C234.7569,77.4465 237.8659,76.2765 240.8699,73.9775 C241.0879,73.9405 241.3039,73.8585 241.5039,73.7075 C245.4619,70.7295 248.2369,66.6225 250.5049,60.3905 C250.9399,59.1975 251.3839,57.9465 251.8169,56.6515 C253.5369,60.4125 255.9519,63.9065 259.4439,66.6755 C264.0229,70.3095 269.3709,72.2915 274.5019,72.2555 C274.5399,72.2555 274.5769,72.2555 274.6139,72.2545 C280.0159,72.1855 285.1199,69.7965 290.2149,64.9535 C295.9659,59.4865 301.5349,53.0225 306.7159,45.8325 C308.1679,52.4075 311.0359,58.7735 315.2639,64.6485 C317.6319,67.9395 320.6999,71.4895 325.5079,72.8685 C327.2579,73.3705 329.0519,73.5705 330.8689,73.5475 C333.3529,73.5155 335.8769,73.0585 338.3879,72.3925 C338.4589,72.4045 338.5269,72.4255 338.6019,72.4255 C338.7519,72.4235 338.9079,72.3945 339.0679,72.3395 C340.1889,71.9475 341.3109,71.5605 342.4349,71.1725 C345.4739,70.1245 348.5589,69.0555 351.6139,67.8995 C350.8289,70.2525 350.7079,72.6095 351.6849,74.8215 C354.8809,82.0625 365.4649,82.3585 373.1519,81.9515 C381.2139,81.5255 389.2899,80.0655 397.2399,77.6025 C397.1699,78.4845 397.2989,79.4005 397.7079,80.3355 C400.9699,87.7765 414.8399,88.5115 419.0139,88.5585 C419.4019,88.5635 419.7899,88.5635 420.1809,88.5585 C425.5639,88.4885 431.1099,87.5205 436.9809,85.6185 L436.9849,85.6365 L437.4339,85.5275 C436.6839,86.7285 436.4149,87.9655 436.6259,89.2495 C437.5029,94.5915 445.7569,95.0075 448.9109,94.9665 C449.0679,94.9645 449.2109,94.9615 449.3399,94.9575 C452.2519,94.8755 455.4019,94.4465 458.7049,93.6855 C458.8479,93.6525 458.9869,93.6075 459.1279,93.5645 C459.3199,93.5425 459.5379,93.4635 459.7219,93.4195 L458.9149,91.1515 Z" id="Stroke-3"></path>
                    <g id="Group-7" transform="translate(0.000000, 80.989000)">
                        <mask id="mask-2" fill="white">
                            <use xlink:href="#path-1"></use>
                        </mask>
                        <g id="Clip-6"></g>
                        <path d="M376.4551,57.7988 C377.6821,56.9238 379.0031,57.0108 380.2811,57.0408 C379.3051,57.9108 378.0641,57.9638 376.4551,57.7988 M87.0011,37.9788 C85.4381,38.9218 83.6741,38.9908 82.0141,39.4978 C84.2821,37.7038 85.1921,37.4168 87.0011,37.9788 M336.0541,47.8238 C336.3891,47.6508 337.5541,47.2838 337.9821,47.1718 C338.4111,47.0588 339.6741,46.3928 340.1561,46.4168 C340.6631,46.4418 340.6851,46.6278 340.9041,46.9428 C340.9011,46.9428 340.8991,46.9438 340.8961,46.9438 C339.0801,47.7478 334.2981,48.7018 334.2981,48.7018 C334.5131,48.4858 335.7201,47.9978 336.0541,47.8238 M402.0621,45.7488 C402.0201,45.8068 401.9151,45.8968 401.8481,45.9358 C399.6081,47.0768 397.5801,47.1978 395.8191,47.1458 C397.8781,45.4498 403.1851,44.2048 402.0621,45.7488 M459.6891,42.3458 L461.9761,42.3648 C455.9331,45.0318 450.3451,47.4368 448.9851,47.8928 C449.4561,47.5938 454.1071,45.1488 459.6891,42.3458 M479.0511,33.5248 C479.6161,33.3638 480.0761,33.8818 479.6161,34.2918 C478.9421,34.7348 472.8211,37.5368 466.1981,40.4908 C465.6491,40.4908 465.0971,40.4888 464.5541,40.4958 C464.1581,40.5008 463.7541,40.5138 463.3551,40.5228 C469.6911,37.3998 476.3101,34.3028 479.0511,33.5248 M490.5371,56.0238 C490.2811,55.2648 489.5921,54.7718 488.2811,55.1248 C488.2811,55.1248 486.0641,55.7418 459.2401,58.7128 L459.2441,58.7448 C457.9211,58.8278 456.5991,58.9178 455.2751,58.9948 C451.3251,59.2238 447.3641,59.3898 443.4041,59.5028 C441.6371,59.5528 439.8671,59.3738 438.2401,58.7778 C436.9831,58.3168 436.5511,57.7798 437.0831,56.8678 C437.5191,56.1208 438.1991,55.4218 438.9331,54.7988 C439.5921,54.2368 440.4781,53.8178 441.2481,53.3208 C443.9411,51.5848 446.8881,50.1898 450.3101,49.2358 C452.7281,48.5628 460.5461,45.0228 466.3701,42.4018 L471.3931,42.4438 L473.5961,42.3768 C475.8131,42.4048 478.0231,42.4238 480.2231,42.4328 C482.4241,42.4428 484.6291,42.6718 486.8421,43.1218 C487.4051,43.2178 487.9121,43.2228 488.3651,43.1368 C488.5541,43.0748 488.7261,42.9068 488.8801,42.6308 C489.0341,42.3568 488.9821,42.0548 488.7261,41.7268 C488.7261,41.7268 488.6861,41.6628 488.5581,41.6128 C488.0321,41.4498 487.4991,41.3028 486.9561,41.1728 C486.4121,41.0428 485.8591,40.9658 485.2961,40.9418 L480.2211,40.7168 C477.3641,40.5558 474.5171,40.4898 471.6771,40.5228 C471.1881,40.5278 470.8311,40.5318 470.5481,40.5348 C471.3861,40.1678 472.0671,39.8758 472.5221,39.6948 C476.3511,38.1798 479.9741,36.3978 482.9961,34.0708 C483.7521,33.4888 483.8621,33.1588 483.3491,32.4358 C482.6141,31.4008 481.7941,31.0178 480.2591,31.2868 C479.0441,31.4998 477.8581,31.8788 476.7521,32.3068 C474.3451,33.2368 471.8951,34.1388 469.6491,35.2468 C468.1841,35.9698 463.8591,38.2468 459.5261,40.5438 C459.0901,40.5338 458.6531,40.5258 458.2071,40.5048 L453.3561,40.3968 C452.9051,40.4118 452.4531,40.4268 452.0021,40.4418 C451.5511,40.4568 451.0991,40.4728 450.6471,40.4868 C448.8421,40.4788 447.0371,40.4778 445.2301,40.4858 C443.4261,40.4928 441.6201,40.5098 439.8141,40.5348 C439.4761,40.5208 439.0801,40.5938 438.6261,40.7558 C438.2111,40.8828 438.0751,41.1298 438.2201,41.4988 C438.2921,41.7568 438.4381,41.9438 438.6631,42.0628 C438.9241,42.2198 439.2421,42.3058 439.6181,42.3218 C440.2581,42.3518 440.8781,42.3788 441.4781,42.4048 C442.0801,42.4318 442.7001,42.4428 443.3401,42.4348 C444.7321,42.4238 446.1141,42.4208 447.4861,42.4278 C448.8601,42.4348 450.2411,42.4308 451.6341,42.4198 C451.9341,42.4338 452.2341,42.4458 452.5351,42.4598 L456.0771,42.3748 C453.0041,44.0098 450.3491,45.4278 449.2861,45.9958 C447.1891,47.1188 445.1431,48.3198 442.8801,49.2408 C440.7251,50.1188 438.3281,50.6968 436.0171,51.3708 C434.8351,51.7158 433.6321,52.0488 432.3981,52.2738 C428.1491,53.0478 419.9381,55.1038 416.6891,55.4308 C413.7971,55.7228 408.3081,55.8918 407.8231,55.8748 C404.2881,55.7548 400.7161,55.7538 397.1821,55.6048 C394.6921,55.4988 392.2091,55.3078 389.2581,55.1268 C390.2681,53.5558 391.1191,52.2198 391.9841,50.8898 C392.5421,50.0308 393.5001,49.5748 394.7891,49.3828 C395.8571,49.2238 396.8911,48.9478 397.9481,48.7488 C399.6421,48.4288 401.3401,48.1118 403.0461,47.8238 C405.3881,47.4268 406.2741,45.7478 404.6771,44.5528 C403.4841,43.6588 402.0481,43.2788 400.4451,43.7398 C399.1471,44.1118 397.8801,44.5398 396.5831,44.9138 C394.7121,45.4528 392.9571,46.0838 391.7891,47.3488 C391.5401,47.6178 391.0721,47.8368 390.6391,47.9518 C389.1011,48.3608 387.5551,48.7708 385.9731,49.0768 C382.6841,49.7138 379.3501,50.2308 376.0741,50.8968 C371.3341,51.8618 360.0011,52.8168 355.3421,53.9588 C350.4181,55.1668 345.4171,56.0788 340.2661,56.5568 C337.4151,56.8208 334.5671,56.8088 331.7861,56.0868 C330.9961,55.8818 330.6171,55.6158 330.4621,55.0058 C329.9701,53.0648 331.7891,50.9418 334.4201,50.4468 C336.1251,50.1268 337.8511,49.8308 339.4911,49.3808 C340.9531,48.9798 342.3481,48.4268 343.7031,47.8568 C344.7441,47.4178 344.9071,46.6788 344.3141,45.9318 C343.4371,44.8268 342.6231,43.7848 341.3331,44.1548 C340.2071,44.4788 338.9161,44.9778 337.7881,45.2978 C337.1721,45.4728 336.5351,45.6518 335.9961,45.9208 C332.8691,47.4808 329.8861,49.2648 326.1591,49.8858 C323.7901,50.2808 321.4401,50.7398 319.0911,51.1938 C316.6811,51.6578 314.2971,52.1938 311.8751,52.6218 C305.0861,53.8248 298.2861,54.9988 291.4841,56.1628 C288.1071,56.7408 285.8461,56.9568 282.2731,57.2378 C279.6571,57.4448 276.3121,56.7598 275.3901,56.0698 C274.0401,55.0608 272.4021,53.2558 272.7471,51.8468 C273.7481,47.7658 279.3651,46.3378 284.3691,44.3858 C285.0161,44.1598 287.0161,43.4648 289.2811,42.4848 L293.8031,42.5028 L295.7561,42.4278 C297.7251,42.4478 299.6841,42.4588 301.6371,42.4598 C303.5891,42.4618 305.5451,42.6838 307.5071,43.1248 C308.0061,43.2188 308.4561,43.2218 308.8581,43.1338 C309.0261,43.0708 309.1801,42.9028 309.3171,42.6268 C309.4551,42.3518 309.4101,42.0508 309.1831,41.7228 C309.1831,41.7228 309.1481,41.6598 309.0341,41.6108 C308.5681,41.4488 308.0961,41.3038 307.6151,41.1758 C307.1331,41.0478 306.6421,40.9728 306.1421,40.9498 L301.6411,40.7438 C299.3271,40.6068 296.0901,40.5528 293.7891,40.5758 C296.5331,39.3608 298.9871,38.2658 299.6731,38.0258 C300.3621,37.7828 301.3911,37.1708 301.3251,36.4978 C301.2681,35.9038 301.0131,35.4808 299.9991,35.2948 C299.1841,35.1118 298.9581,35.1438 297.8341,35.3388 C296.3521,35.8518 290.9681,38.5078 286.6011,40.6288 C286.3361,40.6378 285.5281,40.6418 285.2611,40.6518 C284.7261,40.6618 284.2011,40.6648 283.6841,40.6588 C283.1671,40.6528 282.6421,40.6368 282.1081,40.6128 L277.8051,40.5218 C277.4041,40.5378 277.0041,40.5558 276.6031,40.5718 C276.2021,40.5888 275.8021,40.6068 275.4001,40.6218 C273.7991,40.6198 271.7311,40.6598 270.1301,40.6928 C269.8291,40.6788 269.4771,40.7528 269.0751,40.9158 C268.7061,41.0448 268.5851,41.2918 268.7121,41.6608 C268.7751,41.9188 268.9051,42.1058 269.1031,42.2238 C269.3341,42.3788 269.6171,42.4648 269.9501,42.4808 C270.5171,42.5058 271.0671,42.5308 271.6011,42.5558 C272.1341,42.5798 272.6841,42.5878 273.2521,42.5778 C274.4871,42.5628 275.0341,42.5678 276.2691,42.5508 C276.5361,42.5638 276.8031,42.5748 277.0701,42.5878 L280.6261,42.4778 C280.9541,42.4568 281.7941,42.4248 282.5121,42.4228 C281.5561,42.8468 280.7841,43.1578 280.3111,43.2888 C279.0621,43.7278 277.1661,44.5368 272.7921,45.6498 C268.9591,46.3788 269.3771,46.2658 265.6101,47.1228 C260.7681,48.4078 249.2041,52.0668 245.0061,52.7798 C242.3431,53.2338 234.4921,54.8168 231.7421,55.0058 C226.3841,55.5718 223.0461,55.0948 222.5841,55.0908 C220.4151,55.1288 217.6181,53.1658 217.9401,50.9848 C218.2361,48.9708 219.9461,47.4498 222.1691,46.2768 C223.1401,45.7628 224.2711,45.4088 225.3101,44.9598 C226.1621,44.5928 226.6311,43.7908 226.3351,43.2918 C225.6101,42.0658 223.6841,41.7918 222.3411,42.7508 C220.1641,44.3058 217.7931,45.6318 214.8541,46.3878 C213.5981,46.7108 212.3721,47.1198 211.1951,47.5728 C206.5331,49.3678 196.4971,51.9468 195.2851,52.2838 C192.2551,53.1168 183.6831,54.6648 180.6861,55.0338 C178.8491,55.2598 176.6571,55.0078 174.7431,54.7248 C174.2461,54.7218 172.6131,54.0268 171.8901,53.7068 C171.0971,53.3578 170.5151,52.1088 170.4301,51.5118 C169.2381,47.5748 176.5831,44.5168 178.4041,43.7968 C179.3601,43.4188 180.3171,43.0388 181.2381,42.6198 C182.1891,42.1888 182.2471,41.9248 181.6911,41.2118 C181.0261,40.3608 179.8191,40.1668 178.5651,40.7608 C177.5521,41.2398 176.6571,41.8658 175.5931,42.2678 C173.0331,43.7198 167.8701,47.8638 160.7921,50.4598 C158.2191,51.2458 155.7331,52.1648 153.0151,52.6988 C150.9901,53.0968 148.9571,53.2708 146.8681,53.1018 C145.2251,52.9688 144.5501,52.4018 144.4311,51.2278 C144.2631,49.5798 145.0601,48.1708 146.0691,46.7318 C147.5451,44.6278 149.4631,43.0228 152.8651,42.6188 C152.9251,42.6118 152.9851,42.6008 153.0421,42.5858 C153.9461,42.3398 154.8091,41.1518 154.5191,40.5528 C154.0861,39.6568 152.8721,39.1058 151.6991,39.2588 C150.2561,39.4468 149.1641,40.0278 148.1291,40.7458 C147.3141,41.3128 146.3971,41.8558 145.3921,42.2128 C144.0411,42.6948 142.5411,42.9538 141.1391,43.3658 C135.7891,44.9418 133.7861,46.2188 128.4361,47.7938 C124.5531,48.9378 120.6681,50.0788 116.7521,51.1618 C114.2011,51.8678 111.7681,52.5528 109.2021,53.2308 C106.7631,53.8738 104.5991,54.7718 101.1131,55.1348 C99.8401,55.1678 98.5161,54.7688 97.2651,54.4568 C96.8231,54.3478 96.4261,53.9598 96.1901,53.6318 C95.7341,52.3588 95.8801,51.1608 96.7101,50.0068 C97.2671,49.2328 99.7151,45.0108 100.2421,44.2258 C100.8911,43.2588 101.2021,42.8748 101.6111,42.5428 C102.3741,41.9258 102.1041,40.9658 101.7441,40.4418 C101.3921,39.9298 100.6711,40.0868 99.7061,40.3568 C98.7991,40.6098 97.8491,40.7818 96.9251,41.0058 C92.9361,41.9708 90.8941,42.2268 86.6571,42.2488 C85.3061,42.2568 83.8921,42.3068 82.5291,41.8298 C84.4081,41.0658 86.1741,40.3508 87.9351,39.6288 C90.1011,38.7408 90.5111,37.5688 89.0591,36.3628 C88.2811,35.7178 87.2621,35.4198 86.1041,35.6058 C85.2241,35.7468 84.2671,35.9038 83.5551,36.2678 C82.0241,37.0488 80.6101,37.9508 79.1981,38.8448 C78.9301,39.0138 77.2491,39.8258 76.6031,40.0228 C69.9561,41.3058 57.0141,43.9758 40.4601,48.5508 C56.8261,27.7638 72.4691,11.3828 80.0611,3.4268 C110.8371,4.5488 133.3461,8.2838 142.7841,10.0278 C145.1011,10.4558 148.0051,11.6858 149.1221,10.9568 C149.3111,9.0088 147.2041,9.0398 144.5811,8.2988 C121.6301,3.9418 98.7951,1.9448 79.2481,1.1768 C79.0851,1.0888 78.8121,1.0988 78.5131,1.1478 C52.0271,0.1468 31.7181,1.3998 25.5821,2.0718 L25.5741,2.0628 C25.5741,2.0628 25.1621,2.1148 24.5631,2.1488 C23.0501,2.1478 21.2251,2.0438 20.4511,2.5278 C19.5661,3.1238 19.3151,3.7928 19.4471,4.5758 C19.5881,5.6558 21.5971,6.1338 22.2981,5.6128 C22.8591,5.2778 23.8151,5.0058 24.7561,4.7998 C26.0741,4.5608 27.5091,4.3378 27.5091,4.3378 C45.1531,3.0748 61.5321,2.8838 76.1661,3.2998 C75.5521,4.0628 74.9731,4.6988 74.9731,4.6988 C58.8481,21.8018 46.0191,36.8898 35.8631,49.8508 C23.6551,53.3788 10.9941,57.6818 0.5491,62.6408 C0.5491,62.6408 -0.4699,63.2708 0.3371,64.2148 C0.8141,64.7868 1.6221,65.0158 2.7601,64.3578 C2.7601,64.3578 9.2691,59.8238 33.7521,52.5618 C8.5461,85.1848 0.8381,103.5958 0.1851,105.6938 C-0.7529,108.7088 2.1681,107.9018 2.1681,107.9018 C2.6431,107.7098 2.6061,107.6378 2.7921,107.1878 C2.9081,106.4598 4.9221,102.1918 4.9221,102.1918 C14.4421,83.9988 26.5141,66.5048 38.3731,51.2208 C48.5221,48.3358 61.3701,45.0728 77.5481,41.5298 L79.9371,42.6448 C80.7491,42.9728 81.4021,43.3088 82.1251,43.5158 C85.1601,44.3838 88.3051,44.4258 91.4651,44.0288 C93.4171,43.7848 95.3461,43.4448 97.6061,43.0988 C96.8671,44.1148 94.3831,48.3678 93.9291,49.2078 C93.4741,50.0478 92.8891,50.9738 92.9861,51.8258 C92.6551,56.6938 96.8941,57.1188 100.9101,57.2038 C102.9661,57.2468 105.5531,56.7338 107.5771,56.1828 C110.0081,55.4668 112.7321,54.7368 115.2771,54.0438 C119.5401,52.8818 123.7301,51.5848 127.9391,50.3228 C133.1561,48.7598 135.0281,47.4978 140.2491,45.9408 C141.1171,45.6818 142.0551,45.5408 142.9711,45.3438 C143.0241,45.5368 143.0551,45.5828 143.0431,45.6208 C143.0041,45.7458 142.9931,45.8928 142.8931,45.9898 C141.3751,47.4798 141.4581,49.2038 141.5421,50.9178 C141.6371,52.8368 144.5341,54.9958 147.1771,55.2078 C151.1051,55.5238 154.8061,54.8598 158.3511,53.7898 C161.2931,52.9028 164.1121,51.8038 166.8321,50.8528 C167.5381,51.8948 168.1211,52.9908 168.9751,53.9658 C170.1861,55.3468 171.9601,56.2158 174.2201,56.6298 C176.7881,57.0998 179.3491,57.3728 181.8231,57.0438 C184.2961,56.7298 188.4921,56.3588 191.7281,55.3608 C194.3321,54.6978 202.1281,53.1988 204.5171,52.3528 C207.4591,51.3108 210.3631,50.3498 213.3021,49.3048 C213.8081,49.1238 214.4071,49.0798 215.0391,48.9588 C215.0261,49.8458 214.9141,50.5808 215.0261,51.2988 C215.3141,53.1548 216.7881,54.5788 218.7271,55.6918 C219.9301,56.3818 221.1271,57.2038 222.8281,57.3138 C226.1111,57.5238 229.4651,57.6108 232.6131,57.0588 C235.7081,56.5148 249.1991,54.0028 252.4921,53.1668 C256.7671,52.0818 264.9201,49.6708 268.6251,48.7488 C270.2291,48.4348 270.8341,48.1168 272.7141,47.7818 C272.0591,48.1758 271.4671,48.7128 270.8541,49.2868 C269.9661,50.1198 269.5271,52.0978 269.8581,53.4088 C270.3241,55.2548 271.9291,56.5948 273.8661,57.6528 C276.9921,59.3608 280.7771,59.6158 284.4681,59.3148 C288.5071,58.9848 292.5011,58.3078 296.4761,57.6608 C300.9211,56.9388 305.3221,56.0768 309.7431,55.2788 C312.9811,54.6948 316.2281,54.1328 319.4591,53.5288 C321.8691,53.0788 324.2591,52.5728 326.6631,52.1068 C326.9821,52.0448 327.3321,52.0648 327.7761,52.0408 C327.7141,52.4448 327.6471,52.7408 327.6251,53.0378 C327.4381,55.4878 328.6361,57.2118 331.1671,58.0328 C333.0801,58.6538 335.1481,58.9588 337.2051,58.9428 C339.6911,58.9208 342.2181,58.7938 344.6431,58.4318 C348.0301,57.9258 351.3571,57.2028 354.6771,56.4928 C359.1551,55.5348 370.1731,54.4798 374.6441,53.5088 C377.8411,52.8158 381.0561,52.1648 384.2831,51.5498 C385.4751,51.3218 386.7251,51.2518 388.1101,51.0908 C387.8011,51.8068 387.6881,52.3958 387.3091,52.8748 C386.5471,53.8418 385.8221,54.7698 383.8021,54.7248 C381.6261,54.6758 379.4261,54.9118 377.2571,55.1278 C374.6861,55.3838 373.9281,55.9718 373.4161,57.7448 C373.2621,58.2778 373.4621,58.6568 374.0261,59.0218 C375.7781,60.1528 378.2621,60.4208 380.4951,59.5748 C382.2581,58.9078 383.9331,58.1228 385.6631,57.4088 C386.0721,57.2408 386.5421,57.0548 386.9901,57.0448 C388.0861,57.0228 389.1861,57.0848 390.2831,57.1378 C394.7211,57.3518 399.1551,57.6108 403.5971,57.7738 C404.9131,57.8208 413.3211,57.7448 416.2851,57.4898 C419.1161,57.2468 425.7411,56.1448 432.1351,54.4638 C433.5131,54.2188 434.4001,54.0488 436.0451,53.7488 C435.7961,54.1068 435.7131,54.2628 435.5891,54.3998 C433.8071,56.3468 434.0191,58.2078 436.3011,59.8558 C438.2081,61.2348 440.6841,61.5628 443.2251,61.5388 C445.9001,61.5158 448.5811,61.3928 451.2451,61.2088 C453.9711,61.0208 456.6911,60.7998 459.4101,60.5658 L459.4141,60.6018 C460.0231,60.5298 461.2421,60.4118 462.8451,60.2638 C463.0321,60.2458 463.2221,60.2318 463.4091,60.2138 C463.4841,60.2068 463.5591,60.1978 463.6351,60.1908 C471.5501,59.4648 487.0421,58.1348 489.7921,57.6418 C489.7921,57.6418 490.9791,57.2798 490.5371,56.0238" id="Fill-5" fill="#FFFFFF" mask="url(#mask-2)"></path>
                    </g>
                </g>
            </g>
        </g>
    </g>
</svg>